{"title":"Family.Guy.S10E05.HDTV.XviD-LOL","uid":6817129,"size":183584998,"categoryP":"video","categoryS":"tv_shows","magnet":"?xt=urn:btih:57aeea6455abd1b02a250f77ea627fdf9e91d4a8&amp;dn=Family.Guy.S10E05.HDTV.XviD-LOL&amp;tr=udp%3A%2F%2Ftracker.openbittorrent.com%3A80&amp;tr=udp%3A%2F%2Fopen.demonii.com%3A1337&amp;tr=udp%3A%2F%2Ftracker.coppersurfer.tk%3A6969&amp;tr=udp%3A%2F%2Fexodus.desync.com%3A6969","seeders":1,"leechers":0,"uploader":"TvFreak","files":-1,"time":1321258565,"description":"Family.Guy.S10E05.HDTV.XviD-LOL\n\nI have stopped ReDecoding my episodes now. Now they will be full sized :) Hope you like it :)\n\nSCREENSHOTS:\n &lt;a href=&quot;\nhttp://image.bayimg.com/lakdkaadp.jpg&quot; rel=&quot;nofollow&quot; target=&quot;_NEW&quot;&gt;\nhttp://image.bayimg.com/lakdkaadp.jpg&lt;/a&gt;\n &lt;a href=&quot;\nhttp://image.bayimg.com/lakdlaadp.jpg&quot; rel=&quot;nofollow&quot; target=&quot;_NEW&quot;&gt;\nhttp://image.bayimg.com/lakdlaadp.jpg&lt;/a&gt;\n &lt;a href=&quot;\nhttp://image.bayimg.com/lakdmaadp.jpg&quot; rel=&quot;nofollow&quot; target=&quot;_NEW&quot;&gt;\nhttp://image.bayimg.com/lakdmaadp.jpg&lt;/a&gt;\n\n\nINFO:\n\nFormat                           : AVI\nFormat/Info                      : Audio Video Interleave\nFile size                        : 175 MiB\nDuration                         : 21mn 37s\nOverall bit rate mode            : Variable\nOverall bit rate                 : 1 132 Kbps\nWriting application              : transcode-1.0.6\n\nVideo\nID                               : 0\nFormat                           : MPEG-4 Visual\nFormat profile                   : Advanced Simple@L5\nFormat settings, BVOP            : 2\nFormat settings, QPel            : No\nFormat settings, GMC             : No warppoints\nFormat settings, Matrix          : Default (H.263)\nCodec ID                         : XVID\nCodec ID/Hint                    : XviD\nDuration                         : 21mn 37s\nBit rate                         : 961 Kbps\nWidth                            : 624 pixels\nHeight                           : 352 pixels\nDisplay aspect ratio             : 16:9\nFrame rate                       : 23.976 fps\nColor space                      : YUV\nChroma subsampling               : 4:2:0\nBit depth                        : 8 bits\nScan type                        : Progressive\nCompression mode                 : Lossy\nBits/(Pixel*Frame)               : 0.182\nStream size                      : 149 MiB (85%)\nWriting library                  : XviD 1.2.0SMP (UTC 2006-01-08)\n\nAudio\nID                               : 1\nFormat                           : MPEG Audio\nFormat version                   : Version 1\nFormat profile                   : Layer 3\nMode                             : Joint stereo\nMode extension                   : MS Stereo\nCodec ID                         : 55\nCodec ID/Hint                    : MP3\nDuration                         : 21mn 37s\nBit rate mode                    : Variable\nBit rate                         : 159 Kbps\nNominal bit rate                 : 170 Kbps\nChannel(s)                       : 2 channels\nSampling rate                    : 48.0 KHz\nCompression mode                 : Lossy\nStream size                      : 24.5 MiB (14%)\nAlignment                        : Aligned on interleaves\nInterleave, duration             : 24 ms (0.58 video frame)\nWriting library                  : LAME3.90.\nEncoding settings                : -m j -V 4 -q 2 -lowpass 18 --abr 170\n\n","torrent":{"xt":"urn:btih:57aeea6455abd1b02a250f77ea627fdf9e91d4a8","amp;dn":"Family.Guy.S10E05.HDTV.XviD-LOL","amp;tr":["udp%3A%2F%2Ftracker.openbittorrent.com%3A80","udp%3A%2F%2Fopen.demonii.com%3A1337","udp%3A%2F%2Ftracker.coppersurfer.tk%3A6969","udp%3A%2F%2Fexodus.desync.com%3A6969"],"infoHash":"57aeea6455abd1b02a250f77ea627fdf9e91d4a8","infoHashBuffer":{"type":"Buffer","data":[87,174,234,100,85,171,209,176,42,37,15,119,234,98,127,223,158,145,212,168]},"announce":[],"urlList":[]}}